<svg width="32" height="32" fill="none" xmlns="http://www.w3.org/2000/svg"><mask id="a" maskUnits="userSpaceOnUse" x="0" y="0" width="32" height="32"><circle cx="16" cy="16" r="16" fill="url(#paint0_linear)"/></mask><g mask="url(#a)"><circle cx="16" cy="16" r="16" fill="url(#paint1_linear)"/><path d="M21.088 20.44V2.656c0-.272.008-.568.024-.888l.096-.984L6.52 20.44h14.568zm13.596 0v1.248c0 .176-.056.32-.168.432-.096.096-.256.144-.48.144H23.104v9.744h-2.016v-9.744H5.032c-.24 0-.424-.048-.552-.144a.86.86 0 01-.264-.432L4 20.56 21.064-2h2.04v22.44h11.58z" fill="#fff"/></g><defs><linearGradient id="paint0_linear" x1="36.8" y1="-9.6" x2="9.2" y2="32" gradientUnits="userSpaceOnUse"><stop stop-color="#F0A"/><stop offset="1" stop-color="#8912DE"/></linearGradient><linearGradient id="paint1_linear" x1="36.8" y1="-9.6" x2="9.2" y2="32" gradientUnits="userSpaceOnUse"><stop stop-color="#F0A"/><stop offset="1" stop-color="#8912DE"/></linearGradient></defs></svg>