<svg width="17" height="16" fill="none" xmlns="http://www.w3.org/2000/svg"><rect x=".333" width="16" height="16" rx="4" fill="#0069FF"/><g clip-path="url(#clip0)"><path fill-rule="evenodd" clip-rule="evenodd" d="M3.016 6.009a1.532 1.532 0 10-.32 3.046 1.532 1.532 0 00.32-3.046zm-.05 2.334a.817.817 0 11-.217-1.62.817.817 0 01.218 1.62zM5.2 6.069a.357.357 0 00-.349.431c.034.169.191.284.363.284h.994L4.659 8.832a.102.102 0 00.081.164h2.428a.365.365 0 00.362-.284.357.357 0 00-.348-.431H5.97l1.546-2.047a.103.103 0 00-.082-.165H5.2zm9.7.008a.363.363 0 00-.278.36v1.19l-1.928-1.535a.102.102 0 00-.167.08V8.63a.363.363 0 00.28.359.357.357 0 00.433-.35v-1.2l1.928 1.535a.102.102 0 00.166-.08V6.426a.356.356 0 00-.433-.349zm-5.02.638c.816 0 1.425.431 1.425.817 0 .386-.61.817-1.425.817-.816 0-1.425-.431-1.425-.817 0-.386.61-.817 1.425-.817zm0-.714c-1.18 0-2.138.685-2.138 1.531 0 .846.957 1.531 2.138 1.531 1.18 0 2.138-.685 2.138-1.531 0-.846-.957-1.531-2.138-1.531z" fill="#fff"/></g><defs><clipPath id="clip0"><path fill="#fff" transform="translate(1.333 6)" d="M0 0h14v3.065H0z"/></clipPath></defs></svg>