<svg width="16" height="16" viewBox="0 0 16 16" fill="none" xmlns="http://www.w3.org/2000/svg">
<path fill-rule="evenodd" clip-rule="evenodd" d="M7.99609 1C8.54838 1 8.99609 1.34822 8.99609 1.77778V14.2222C8.99609 14.6518 8.54838 15 7.99609 15C7.44381 15 6.99609 14.6518 6.99609 14.2222V1.77778C6.99609 1.34822 7.44381 1 7.99609 1Z" fill="#5068A5"/>
<path fill-rule="evenodd" clip-rule="evenodd" d="M14.9961 8C14.9961 8.55228 14.6479 9 14.2183 9L1.77387 9C1.34432 9 0.996094 8.55228 0.996094 8C0.996094 7.44771 1.34432 7 1.77387 7L14.2183 7C14.6479 7 14.9961 7.44772 14.9961 8Z" fill="#5068A5"/>
</svg>