<svg width="17" height="16" fill="none" xmlns="http://www.w3.org/2000/svg"><g clip-path="url(#clip0)" fill="#EA5DBB"><path d="M13.99 2.343A7.948 7.948 0 008.333 0a7.948 7.948 0 00-5.657 2.343A7.948 7.948 0 00.333 8c0 2.137.832 4.146 2.343 5.657A7.948 7.948 0 008.333 16a7.947 7.947 0 005.657-2.343A7.948 7.948 0 0016.333 8a7.948 7.948 0 00-2.343-5.657zm-5.657 12.72A7.07 7.07 0 011.271 8 7.07 7.07 0 018.333.937 7.07 7.07 0 0115.396 8a7.07 7.07 0 01-7.063 7.063z"/><path d="M8.836 7.531H7.83a1.039 1.039 0 010-2.075H9.84a.469.469 0 000-.937H8.802V3.48a.469.469 0 00-.937 0V4.52H7.83a1.977 1.977 0 00-1.975 1.975c0 1.089.886 1.975 1.975 1.975h1.005a1.039 1.039 0 010 2.075H6.827a.469.469 0 000 .937h1.038v1.038a.469.469 0 10.937 0V11.48h.034a1.977 1.977 0 001.975-1.975 1.977 1.977 0 00-1.975-1.975z"/></g><defs><clipPath id="clip0"><path fill="#fff" transform="translate(.333)" d="M0 0h16v16H0z"/></clipPath></defs></svg>