<svg width="127" height="32" fill="none" xmlns="http://www.w3.org/2000/svg"><mask id="a" maskUnits="userSpaceOnUse" x="0" y="0" width="32" height="32"><circle cx="16" cy="16" r="16" fill="url(#paint0_linear)"/></mask><g mask="url(#a)"><circle cx="16" cy="16" r="16" fill="url(#paint1_linear)"/><path d="M21.088 20.44V2.656c0-.272.008-.568.024-.888l.096-.984L6.52 20.44h14.568zm13.596 0v1.248c0 .176-.056.32-.168.432-.096.096-.256.144-.48.144H23.104v9.744h-2.016v-9.744H5.032c-.24 0-.424-.048-.552-.144a.86.86 0 01-.264-.432L4 20.56 21.064-2h2.04v22.44h11.58z" fill="#fff"/></g><path d="M45.984 15.892a.571.571 0 01-.168.184.465.465 0 01-.224.048.731.731 0 01-.312-.08 9.34 9.34 0 00-.376-.176c-.144-.07-.31-.13-.496-.184a2.314 2.314 0 00-.648-.08c-.39 0-.696.083-.92.248a.775.775 0 00-.328.648.64.64 0 00.168.448c.117.117.27.221.456.312.192.09.408.173.648.248.24.07.483.147.728.232.25.085.496.184.736.296.24.107.453.245.64.416.192.165.344.365.456.6.117.235.176.517.176.848 0 .395-.072.76-.216 1.096-.139.33-.347.619-.624.864-.277.24-.621.43-1.032.568-.405.133-.875.2-1.408.2-.283 0-.56-.027-.832-.08a4.521 4.521 0 01-1.464-.528 3.417 3.417 0 01-.552-.4l.456-.752a.645.645 0 01.208-.208.583.583 0 01.304-.072.62.62 0 01.344.104c.112.07.24.144.384.224.144.08.312.155.504.224.197.07.445.104.744.104.235 0 .435-.027.6-.08.17-.059.31-.133.416-.224a.783.783 0 00.24-.312.935.935 0 00.08-.376.655.655 0 00-.176-.472 1.442 1.442 0 00-.456-.32 3.935 3.935 0 00-.648-.24c-.24-.075-.488-.155-.744-.24a7.978 7.978 0 01-.744-.296 2.722 2.722 0 01-.648-.44 2.054 2.054 0 01-.456-.648c-.112-.256-.168-.565-.168-.928 0-.336.067-.656.2-.96.133-.304.328-.568.584-.792.261-.23.584-.41.968-.544.39-.139.837-.208 1.344-.208.565 0 1.08.093 1.544.28.464.187.85.432 1.16.736l-.448.712zm4.76 6.736c-.715 0-1.265-.2-1.649-.6-.378-.405-.568-.963-.568-1.672v-4.584h-.84a.385.385 0 01-.272-.104c-.074-.07-.112-.173-.112-.312v-.784l1.32-.216.416-2.24a.438.438 0 01.152-.248.452.452 0 01.288-.088h1.024v2.584h2.192v1.408h-2.192v4.448c0 .256.062.456.184.6a.66.66 0 00.52.216.976.976 0 00.304-.04c.086-.032.158-.064.216-.096.064-.032.12-.061.168-.088a.258.258 0 01.144-.048c.059 0 .107.016.144.048.038.027.078.07.12.128l.592.96c-.288.24-.618.421-.992.544-.373.123-.76.184-1.16.184zm7.552-3.632c-.57.027-1.05.077-1.44.152-.389.07-.701.16-.936.272-.234.112-.402.243-.504.392a.85.85 0 00-.152.488c0 .347.102.595.304.744.208.15.478.224.808.224.406 0 .755-.072 1.048-.216.299-.15.59-.373.872-.672v-1.384zm-4.528-3.56c.944-.864 2.08-1.296 3.408-1.296.48 0 .91.08 1.288.24.379.155.699.373.96.656.262.277.459.61.592 1 .139.39.208.816.208 1.28V22.5h-.896c-.186 0-.33-.027-.432-.08-.101-.059-.181-.173-.24-.344l-.176-.592c-.208.187-.41.352-.608.496a3.74 3.74 0 01-.616.352 3.141 3.141 0 01-.688.216c-.24.053-.506.08-.8.08-.346 0-.666-.045-.96-.136a2.156 2.156 0 01-.76-.424 1.885 1.885 0 01-.496-.696 2.468 2.468 0 01-.176-.968 1.89 1.89 0 01.44-1.208c.16-.187.366-.363.616-.528.251-.165.558-.31.92-.432a7.844 7.844 0 011.28-.296c.486-.08 1.04-.128 1.664-.144v-.48c0-.55-.117-.955-.352-1.216-.234-.267-.573-.4-1.016-.4-.32 0-.586.037-.8.112-.208.075-.392.16-.552.256l-.44.248a.841.841 0 01-.432.112.585.585 0 01-.352-.104.954.954 0 01-.232-.256l-.352-.632zm10.944 7.192c-.715 0-1.264-.2-1.648-.6-.379-.405-.568-.963-.568-1.672v-4.584h-.84a.385.385 0 01-.272-.104c-.075-.07-.112-.173-.112-.312v-.784l1.32-.216.416-2.24a.439.439 0 01.152-.248.452.452 0 01.288-.088h1.024v2.584h2.192v1.408h-2.192v4.448c0 .256.061.456.184.6a.66.66 0 00.52.216.975.975 0 00.304-.04c.085-.032.157-.064.216-.096.064-.032.12-.061.168-.088a.258.258 0 01.144-.048c.059 0 .107.016.144.048.037.027.077.07.12.128l.592.96c-.288.24-.619.421-.992.544-.373.123-.76.184-1.16.184zM77.21 22.5v-8.208h1.208c.256 0 .424.12.504.36l.128.608c.144-.16.294-.307.448-.44a2.686 2.686 0 011.76-.656c.518 0 .942.141 1.272.424.336.277.587.648.752 1.112.128-.272.288-.504.48-.696.192-.197.403-.357.632-.48.23-.123.472-.213.728-.272.262-.059.523-.088.784-.088.454 0 .856.07 1.208.208.352.139.648.341.888.608.24.267.422.592.544.976.128.384.192.824.192 1.32V22.5h-1.976v-5.224c0-.523-.114-.915-.344-1.176-.229-.267-.565-.4-1.008-.4-.202 0-.392.035-.568.104-.17.07-.322.17-.456.304-.128.128-.229.29-.304.488a1.913 1.913 0 00-.112.68V22.5h-1.984v-5.224c0-.55-.112-.95-.336-1.2-.218-.25-.541-.376-.968-.376-.288 0-.557.072-.808.216-.245.139-.474.33-.688.576V22.5H77.21zm17.743-3.504c-.571.027-1.051.077-1.44.152-.39.07-.702.16-.936.272-.235.112-.403.243-.504.392a.852.852 0 00-.152.488c0 .347.101.595.304.744.208.15.477.224.808.224.405 0 .754-.072 1.048-.216.298-.15.589-.373.872-.672v-1.384zm-4.528-3.56c.944-.864 2.08-1.296 3.408-1.296.48 0 .909.08 1.288.24.378.155.698.373.96.656.261.277.458.61.592 1 .138.39.208.816.208 1.28V22.5h-.896c-.187 0-.331-.027-.432-.08-.102-.059-.182-.173-.24-.344l-.176-.592c-.208.187-.411.352-.608.496a3.732 3.732 0 01-.616.352 3.138 3.138 0 01-.688.216c-.24.053-.507.08-.8.08-.347 0-.667-.045-.96-.136a2.158 2.158 0 01-.76-.424 1.887 1.887 0 01-.496-.696 2.47 2.47 0 01-.176-.968 1.892 1.892 0 01.44-1.208c.16-.187.365-.363.616-.528a4 4 0 01.92-.432 7.847 7.847 0 011.28-.296c.485-.08 1.04-.128 1.664-.144v-.48c0-.55-.118-.955-.352-1.216-.235-.267-.574-.4-1.016-.4-.32 0-.587.037-.8.112-.208.075-.392.16-.552.256l-.44.248a.841.841 0 01-.432.112.586.586 0 01-.352-.104.956.956 0 01-.232-.256l-.352-.632zm10.181.28c.256-.49.56-.875.912-1.152a1.932 1.932 0 011.248-.424c.378 0 .682.083.912.248l-.128 1.48a.396.396 0 01-.12.208.32.32 0 01-.2.056c-.08 0-.2-.013-.36-.04a2.683 2.683 0 00-.456-.04c-.219 0-.414.032-.584.096a1.467 1.467 0 00-.464.28 1.901 1.901 0 00-.36.432c-.102.17-.198.365-.288.584V22.5h-1.976v-8.208h1.16c.202 0 .344.037.424.112.08.07.133.197.16.384l.12.928zm6.08-5.104v6.808h.368a.81.81 0 00.312-.048c.08-.037.16-.11.24-.216l2.04-2.52a.977.977 0 01.28-.256.842.842 0 01.408-.088h1.808l-2.552 3.048c-.181.24-.378.424-.592.552.112.08.211.173.296.28.091.107.176.221.256.344l2.736 3.984h-1.784c-.154 0-.288-.024-.4-.072a.645.645 0 01-.28-.28l-2.096-3.112a.586.586 0 00-.232-.24.89.89 0 00-.36-.056h-.448v3.76h-1.976V10.612h1.976zm11.437 6.84c0-.256-.037-.496-.112-.72a1.661 1.661 0 00-.32-.6 1.461 1.461 0 00-.552-.4 1.807 1.807 0 00-.768-.152c-.57 0-1.021.163-1.352.488-.325.325-.533.787-.624 1.384h3.728zm-3.768 1.192c.032.421.107.787.224 1.096.118.304.272.557.464.76.192.197.419.347.68.448.267.096.56.144.88.144.32 0 .595-.037.824-.112.235-.075.438-.157.608-.248.176-.09.328-.173.456-.248a.79.79 0 01.384-.112c.166 0 .288.061.368.184l.568.72a3.366 3.366 0 01-.736.648c-.272.17-.557.31-.856.416a4.736 4.736 0 01-.904.216c-.304.043-.6.064-.888.064-.57 0-1.101-.093-1.592-.28a3.644 3.644 0 01-1.28-.84 4 4 0 01-.856-1.376c-.208-.55-.312-1.184-.312-1.904 0-.56.091-1.085.272-1.576.182-.496.44-.925.776-1.288a3.707 3.707 0 011.24-.872 4.116 4.116 0 011.656-.32c.518 0 .995.083 1.432.248.438.165.814.408 1.128.728.315.315.56.704.736 1.168.182.459.272.984.272 1.576 0 .299-.032.501-.096.608-.064.101-.186.152-.368.152h-5.08zm9.685 3.984c-.715 0-1.264-.2-1.648-.6-.379-.405-.568-.963-.568-1.672v-4.584h-.84a.385.385 0 01-.272-.104c-.075-.07-.112-.173-.112-.312v-.784l1.32-.216.416-2.24a.439.439 0 01.152-.248.453.453 0 01.288-.088h1.024v2.584h2.192v1.408H123.8v4.448c0 .256.061.456.184.6a.66.66 0 00.52.216.974.974 0 00.304-.04c.085-.032.157-.064.216-.096.064-.032.12-.061.168-.088a.258.258 0 01.144-.048c.059 0 .107.016.144.048.037.027.077.07.12.128l.592.96c-.288.24-.619.421-.992.544a3.69 3.69 0 01-1.16.184z" fill="#333"/><path d="M72.65 18.14v-3.784c0-.357.023-.752.071-1.184L69.13 18.14h3.52zm3.175 0v1.144c0 .107-.035.2-.104.28-.07.075-.168.112-.296.112H74.37V22.5h-1.72v-2.824h-4.88a.552.552 0 01-.352-.12.554.554 0 01-.192-.312l-.208-1 5.48-7.32h1.872v7.216h1.456z" fill="#EA5DBB"/><defs><linearGradient id="paint0_linear" x1="36.8" y1="-9.6" x2="9.2" y2="32" gradientUnits="userSpaceOnUse"><stop stop-color="#F0A"/><stop offset="1" stop-color="#8912DE"/></linearGradient><linearGradient id="paint1_linear" x1="36.8" y1="-9.6" x2="9.2" y2="32" gradientUnits="userSpaceOnUse"><stop stop-color="#F0A"/><stop offset="1" stop-color="#8912DE"/></linearGradient></defs></svg>